Coordinates
version=1
nRows=26
nColumns=24
inDegrees=yes

Units are S.I. units (second, meters, Newtons, ...)
Angles are in degrees.

endheader
time	pelvis_tilt	pelvis_list	pelvis_rotation	pelvis_tx	pelvis_ty	pelvis_tz	hip_flexion_r	hip_adduction_r	hip_rotation_r	knee_angle_r	ankle_angle_r	subtalar_angle_r	mtp_angle_r	hip_flexion_l	hip_adduction_l	hip_rotation_l	knee_angle_l	ankle_angle_l	subtalar_angle_l	mtp_angle_l	lumbar_extension	lumbar_bending	lumbar_rotation
      2.94000000	     -2.19817330	     -4.40614612	     -3.47181092	     -0.13534828	      0.78525126	     -0.21376805	    -18.15682071	      4.19446338	     -0.34251960	    -12.20109782	      6.59382583	     10.74467822	      0.00000000	     22.14542432	     -2.06003734	     -0.46407614	     -4.09431554	     -2.58233627	    -11.21738064	      0.00000000	     -9.43270884	      6.73682010	      5.42204281
      2.95000000	     -1.94135176	     -3.89658482	     -3.18619838	     -0.12010046	      0.78595723	     -0.21470373	    -18.24170315	      3.60555077	      0.39422823	    -14.19483113	      3.77836190	      9.42979131	      0.00000000	     21.66308935	     -1.25196220	      0.55240905	     -5.59801875	     -3.75969544	    -12.77747674	      0.00000000	     -9.42257589	      5.92064514	      5.04646592
      2.96000000	     -1.66774349	     -3.38744726	     -2.85284578	     -0.10488620	      0.78710101	     -0.21568248	    -17.99458240	      3.03654486	      0.83614102	    -16.67412059	      0.50345024	      8.40036017	      0.00000000	     21.17273424	     -0.45356349	      1.42802511	     -7.13590169	     -4.59135995	    -13.53510619	      0.00000000	     -9.43164317	      5.11657854	      4.57430082
      2.97000000	     -1.35295922	     -2.90358593	     -2.53733132	     -0.08976282	      0.78863519	     -0.21664095	    -17.44787817	      2.51495788	      1.25684961	    -19.59306234	     -3.25654879	      7.39833187	      0.00000000	     20.59286872	      0.29803532	      2.20521385	     -8.61942732	     -5.11355805	    -13.89835841	      0.00000000	     -9.47888139	      4.35324227	      4.00486318
      2.98000000	     -1.04642195	     -2.48337806	     -2.28367462	     -0.07478401	      0.79040855	     -0.21753407	    -16.54074595	      2.06620814	      1.67036379	    -22.92691476	     -7.32875953	      6.53907866	      0.00000000	     19.93249328	      0.95648881	      2.90175586	     -9.97911088	     -5.30717534	    -14.06853938	      0.00000000	     -9.48995167	      3.67874669	      3.32792968
      2.99000000	     -0.76545406	     -2.15100360	     -2.15735857	     -0.06004808	      0.79229236	     -0.21833715	    -15.23546416	      1.67393295	      2.02334676	    -26.66886425	    -11.35520481	      5.91637603	      0.00000000	     19.18091802	      1.48163895	      3.41985263	    -11.15287325	     -5.21809073	    -14.19894424	      0.00000000	     -9.46086938	      3.13668676	      2.63191874
      3.00000000	     -0.56001502	     -1.86886268	     -2.16985830	     -0.04558111	      0.79413201	     -0.21904037	    -13.53561399	      1.31017762	      2.39405252	    -30.70088368	    -14.95505181	      5.50150249	      0.00000000	     18.36643220	      1.91309180	      3.76784080	    -12.08595073	     -4.83055260	    -14.35474903	      0.00000000	     -9.35057080	      2.67175043	      1.94493939
      3.01000000	     -0.45523558	     -1.61463846	     -2.32648043	     -0.03141776	      0.79583568	     -0.21963024	    -11.47324666	      0.96516306	      2.81040062	    -34.90716289	    -17.76573403	      5.17858536	      0.00000000	     17.50857681	      2.27206207	      3.92687423	    -12.74644772	     -4.18896111	    -14.54431668	      0.00000000	     -9.20155643	      2.23817507	      1.46460452
      3.02000000	     -0.43585996	     -1.33591820	     -2.59549449	     -0.01754687	      0.79739346	     -0.22012144	     -9.14378503	      0.60950220	      3.26943548	    -39.13994447	    -19.54838212	      4.80972867	      0.00000000	     16.58407985	      2.62002591	      3.90440291	    -13.09691825	     -3.39164115	    -14.75524844	      0.00000000	     -9.10207498	      1.75201465	      1.34029159
      3.03000000	     -0.49599630	     -1.06529431	     -2.92817015	     -0.00397489	      0.79881155	     -0.22053908	     -6.63910722	      0.31915348	      3.79766975	    -43.23536011	    -20.25180063	      4.23063641	      0.00000000	     15.62878346	      2.93940801	      3.77644756	    -13.21111845	     -2.49731304	    -14.93597531	      0.00000000	     -9.08921150	      1.24246371	      1.65137114
      3.04000000	     -0.70825990	     -0.88661511	     -3.23612957	      0.00933564	      0.80004421	     -0.22097445	     -3.94306962	      0.17188377	      4.22793702	    -47.05676515	    -20.00528217	      3.51038151	      0.00000000	     14.76736534	      3.13733442	      3.39983535	    -13.16008200	     -1.36023366	    -14.75146519	      0.00000000	     -9.00366412	      0.84518166	      2.09334018
      3.05000000	     -0.76247109	     -0.66182177	     -3.50319179	      0.02250844	      0.80147432	     -0.22148867	     -1.47120956	      0.02742804	      4.63313178	    -50.43146727	    -19.03853297	      2.36409638	      0.00000000	     13.58300168	      3.40941959	      3.09916647	    -12.77627505	     -0.48324276	    -14.73312779	      0.00000000	     -9.11699998	      0.41565865	      2.43196947
      3.06000000	     -0.94275186	     -0.62850531	     -3.61064794	      0.03548647	      0.80280057	     -0.22219453	      1.05865236	      0.12057085	      4.82980500	    -53.31865564	    -17.45727397	      1.12734320	      0.00000000	     12.56270456	      3.48345851	      2.65210593	    -12.42963368	      0.65837500	    -14.09166691	      0.00000000	     -9.06772700	      0.28053040	      2.48665669
      3.07000000	     -1.01893161	     -0.61462527	     -3.60770246	      0.04843274	      0.80432509	     -0.22310223	      3.37144739	      0.23245341	      4.88830021	    -55.63820563	    -15.73766418	     -0.37194002	      0.00000000	     11.29901164	      3.58830564	      2.53939144	    -11.81187041	      1.37520173	    -13.80291592	      0.00000000	     -9.09803008	      0.21138958	      2.32259796
      3.08000000	     -1.14462819	     -0.76787519	     -3.43659286	      0.06132665	      0.80584161	     -0.22427788	      5.61453709	      0.50340249	      4.73581243	    -57.38477995	    -13.84562531	     -1.82818042	      0.00000000	     10.09854850	      3.54238050	      2.53661674	    -11.21178872	      2.11645269	    -13.41096761	      0.00000000	     -9.05292453	      0.40546011	      1.90207944
      3.09000000	     -1.29251080	     -1.05152938	     -3.17116417	      0.07419592	      0.80735528	     -0.22562469	      7.76154466	      0.88788279	      4.45615009	    -58.57193044	    -11.88818958	     -3.19122930	      0.00000000	      8.96638470	      3.34699699	      2.33586834	    -10.67986924	      2.92595637	    -12.59418378	      0.00000000	     -8.97519320	      0.79219078	      1.39915235
      3.10000000	     -1.40156401	     -1.41522983	     -2.75531209	      0.08709770	      0.80888145	     -0.22725729	      9.72941733	      1.29695456	      3.99539893	    -59.19420344	    -10.00584874	     -4.47517914	      0.00000000	      7.72900219	      3.12177052	      2.66817798	    -10.02882415	      3.43825773	    -12.31553295	      0.00000000	     -8.92900964	      1.31828121	      0.75761819
      3.11000000	     -1.60666132	     -1.84952358	     -2.26555348	      0.09997594	      0.81020940	     -0.22903642	     11.68608246	      1.74752188	      3.45843671	    -59.32319823	     -8.15589260	     -5.56891949	      0.00000000	      6.61378072	      2.81547314	      3.02590188	     -9.38917106	      3.89049626	    -11.98207510	      0.00000000	     -8.76058598	      1.95907150	      0.03549051
      3.12000000	     -1.83838097	     -2.31457995	     -1.73095892	      0.11284512	      0.81134457	     -0.23090636	     13.56039205	      2.18386321	      2.86052250	    -58.99011100	     -6.37091306	     -6.49444421	      0.00000000	      5.53726238	      2.47117099	      3.41901568	     -8.74556756	      4.30919692	    -11.63604494	      0.00000000	     -8.54557505	      2.65351645	     -0.72603148
      3.13000000	     -2.08423103	     -2.78290746	     -1.16411882	      0.12569169	      0.81225182	     -0.23282638	     15.33990812	      2.57889732	      2.22130440	    -58.22365902	     -4.68659814	     -7.26304203	      0.00000000	      4.47802546	      2.11470365	      3.83309574	     -8.07693925	      4.69835294	    -11.29924238	      0.00000000	     -8.30444169	      3.36013972	     -1.51559415
      3.14000000	     -2.33413944	     -3.22291505	     -0.58226407	      0.13851069	      0.81290707	     -0.23473157	     17.01615689	      2.91703352	      1.59034106	    -57.06012179	     -3.14014286	     -7.83763855	      0.00000000	      3.40820107	      1.77284767	      4.27673592	     -7.35016155	      5.05239330	    -10.97138044	      0.00000000	     -8.05189708	      4.02676532	     -2.33406135
      3.15000000	     -2.55569909	     -3.61429582	     -0.00992738	      0.15130375	      0.81331765	     -0.23656775	     18.54874323	      3.17648029	      0.96903136	    -55.50726991	     -1.75846084	     -8.33565189	      0.00000000	      2.30821288	      1.46145038	      4.67602094	     -6.59947213	      5.35976741	    -10.70329749	      0.00000000	     -7.83545571	      4.62018980	     -3.11900481
      3.16000000	     -2.75633238	     -3.94812505	      0.54037126	      0.16407631	      0.81346588	     -0.23829161	     19.94066564	      3.37179880	      0.40018247	    -53.58251164	     -0.60115888	     -8.77040062	      0.00000000	      1.17810670	      1.18516400	      5.01748478	     -5.81591708	      5.62990303	    -10.46812188	      0.00000000	     -7.65171941	      5.12329716	     -3.88159280
      3.17000000	     -2.93446757	     -4.20787554	      1.06593996	      0.17685118	      0.81335674	     -0.23989756	     21.17562129	      3.49969103	     -0.08468028	    -51.28501771	      0.34083877	     -9.09909505	      0.00000000	      0.01180932	      0.96128070	      5.30107060	     -5.00048859	      5.86736556	    -10.23673739	      0.00000000	     -7.50105000	      5.52021921	     -4.61001025
      3.18000000	     -3.08090754	     -4.38805241	      1.54438661	      0.18966134	      0.81300285	     -0.24135187	     22.23257504	      3.57801471	     -0.43414270	    -48.62109003	      1.06294904	     -9.28151736	      0.00000000	     -1.21911174	      0.79515586	      5.53845882	     -4.13431592	      6.07442543	     -9.99898252	      0.00000000	     -7.39405704	      5.79857214	     -5.31445708
      3.19000000	     -3.22689886	     -4.48631762	      1.98886447	      0.20252067	      0.81236913	     -0.24267250	     23.13605444	      3.59578547	     -0.68038639	    -45.59524529	      1.60609545	     -9.39305914	      0.00000000	     -2.46816443	      0.69358800	      5.65669396	     -3.24312138	      6.23390238	     -9.76141995	      0.00000000	     -7.30076969	      5.95934709	     -5.96636287
